<svg xmlns="http://www.w3.org/2000/svg" width="98" height="40" viewBox="0 0 98 40">
  <g id="Group_4544" data-name="Group 4544" transform="translate(-42 -276)">
    <rect id="Rectangle_1911" data-name="Rectangle 1911" width="98" height="40" rx="8" transform="translate(42 276)" fill="#1ad672"/>
    <g id="Group_4540" data-name="Group 4540">
      <text id="Available" transform="translate(80 301)" fill="#fff" font-size="14" font-family="SegoeUI, Segoe UI"><tspan x="0" y="0">Accept</tspan></text>
      <g id="Group_4464" data-name="Group 4464" transform="translate(-230 65)">
        <g id="Rectangle_13" data-name="Rectangle 13" transform="translate(282 221)" fill="none" stroke="#fff" stroke-width="1">
          <rect width="20" height="20" rx="10" stroke="none"/>
          <rect x="0.5" y="0.5" width="19" height="19" rx="9.5" fill="none"/>
        </g>
        <path id="Path_755" data-name="Path 755" d="M7.614,13,4.893,10.281a.694.694,0,0,0-.982,0h0a.694.694,0,0,0,0,.982l2.722,2.722a1.389,1.389,0,0,0,1.965,0L15.022,7.56a.694.694,0,0,0,0-.982h0a.694.694,0,0,0-.982,0Z" transform="translate(282.534 220.617)" fill="#fff"/>
      </g>
    </g>
  </g>
</svg>
