<svg xmlns="http://www.w3.org/2000/svg" width="33" height="33" viewBox="0 0 33 33">
  <g id="Group_4628" data-name="Group 4628" transform="translate(-327 -105)">
    <g id="Group_4627" data-name="Group 4627">
      <g id="Frame" transform="translate(331 109)" fill="none" stroke="#B0B0B0" stroke-width="1">
        <rect width="28" height="28" rx="2" stroke="none"/>
        <rect x="-0.5" y="-0.5" width="29" height="29" rx="2.5" fill="none"/>
      </g>
      <path id="fi-rr-dashboard" d="M18.453,9.054A9.265,9.265,0,0,0,0,10.261a9.171,9.171,0,0,0,2.9,6.726,3.737,3.737,0,0,0,2.59.994h7.541a3.856,3.856,0,0,0,2.709-1.1,9.222,9.222,0,0,0,2.711-7.824Zm-3.79,6.717a2.316,2.316,0,0,1-1.63.666H5.492a2.21,2.21,0,0,1-1.53-.572,7.644,7.644,0,0,1-2.418-5.6A7.732,7.732,0,0,1,4.121,4.5,7.629,7.629,0,0,1,9.254,2.54a8.148,8.148,0,0,1,.906.051,7.716,7.716,0,0,1,4.5,13.184Zm-8.635-2.2a.773.773,0,1,1-1.081,1.1,6.177,6.177,0,0,1,5.2-10.527.772.772,0,0,1,.654.875.764.764,0,0,1-.875.655,4.633,4.633,0,0,0-3.9,7.893Zm9.352-4.191a6.233,6.233,0,0,1,.063.883,6.123,6.123,0,0,1-1.859,4.413A.773.773,0,0,1,12.5,13.569,4.617,4.617,0,0,0,13.848,9.6a.773.773,0,1,1,1.53-.221Zm-4.627.487A1.57,1.57,0,1,1,9.66,8.774L12.58,5.855a.772.772,0,1,1,1.092,1.092Z" transform="translate(336 114.018)"/>
    </g>
    <circle id="Ellipse_606" data-name="Ellipse 606" cx="4" cy="4" r="4" transform="translate(327 105)" fill="#f62b2b"/>
  </g>
</svg>
