<svg xmlns="http://www.w3.org/2000/svg" width="30" height="30" viewBox="0 0 30 30">
  <g id="Group_4642" transform="translate(-330 -108)">
    <g id="Frame" transform="translate(331 109)" fill="none" stroke="rgba(0,0,0,0.1)" stroke-width="1">
      <rect width="28" height="28" rx="2" stroke="none"/>
      <rect x="-0.5" y="-0.5" width="29" height="29" rx="2.5" fill="none"/>
    </g>
    <path id="fi-rr-treatment" d="M7.25,6.375a.708.708,0,0,1,.708-.708h.708V4.958a.708.708,0,0,1,1.417,0v.708h.708a.708.708,0,1,1,0,1.417h-.708v.708a.708.708,0,1,1-1.417,0V7.083H7.958A.708.708,0,0,1,7.25,6.375Zm4.958,3.542H6.542a.708.708,0,1,0,0,1.417h5.667a.708.708,0,1,0,0-1.417ZM9.375,12.75H6.542a.708.708,0,1,0,0,1.417H9.375a.708.708,0,1,0,0-1.417ZM15.75,4.958v8.5A3.546,3.546,0,0,1,12.208,17H6.542A3.546,3.546,0,0,1,3,13.458v-8.5A3.546,3.546,0,0,1,6.542,1.417h.121A2.129,2.129,0,0,1,8.667,0h1.417a2.129,2.129,0,0,1,2,1.417h.121A3.546,3.546,0,0,1,15.75,4.958Zm-1.417,0a2.125,2.125,0,0,0-2.125-2.125H11.5a.708.708,0,0,1-.708-.708.708.708,0,0,0-.708-.708H8.667a.708.708,0,0,0-.708.708.708.708,0,0,1-.708.708H6.542A2.125,2.125,0,0,0,4.417,4.958v8.5a2.125,2.125,0,0,0,2.125,2.125h5.667a2.125,2.125,0,0,0,2.125-2.125Z" transform="translate(336 115)"/>
  </g>
</svg>
