<svg xmlns="http://www.w3.org/2000/svg" width="126" height="40" viewBox="0 0 126 40">
  <g id="Group_4562" data-name="Group 4562" transform="translate(-18 -541)">
    <rect id="Rectangle_1911" data-name="Rectangle 1911" width="126" height="40" rx="8" transform="translate(18 541)" fill="#22c7b8"/>
    <g id="Group_4558" data-name="Group 4558" transform="translate(-59.385)">
      <text id="Available" transform="translate(118 566)" fill="#fff" font-size="14" font-family="SegoeUI, Segoe UI"><tspan x="0" y="0">Add Nurse</tspan></text>
      <path id="fi-rr-plus-small" d="M24.333,14.333H17.667V7.667A1.667,1.667,0,0,0,16,6h0a1.667,1.667,0,0,0-1.667,1.667v6.667H7.667A1.667,1.667,0,0,0,6,16H6a1.667,1.667,0,0,0,1.667,1.667h6.667v6.667A1.667,1.667,0,0,0,16,26h0a1.667,1.667,0,0,0,1.667-1.667V17.667h6.667A1.667,1.667,0,0,0,26,16h0A1.667,1.667,0,0,0,24.333,14.333Z" transform="translate(84.385 545)" fill="#fff"/>
    </g>
  </g>
</svg>
