<svg xmlns="http://www.w3.org/2000/svg" width="98" height="40" viewBox="0 0 98 40">
  <g id="Group_4543" data-name="Group 4543" transform="translate(-160 -276)">
    <rect id="Rectangle_1912" data-name="Rectangle 1912" width="98" height="40" rx="8" transform="translate(160 276)" fill="#ec9511"/>
    <g id="Group_4542" data-name="Group 4542" transform="translate(9)">
      <text id="Available" transform="translate(198 301)" fill="#fff" font-size="14" font-family="SegoeUI, Segoe UI"><tspan x="0" y="0">Busy</tspan></text>
      <g id="Group_4541" data-name="Group 4541">
        <g id="Rectangle_13" data-name="Rectangle 13" transform="translate(170 286)" fill="none" stroke="#fff" stroke-width="1">
          <rect width="20" height="20" rx="10" stroke="none"/>
          <rect x="0.5" y="0.5" width="19" height="19" rx="9.5" fill="none"/>
        </g>
        <path id="fi-rr-cross-small" d="M14.021,5.905h0a.676.676,0,0,0-.956,0l-3.1,3.1-3.1-3.1a.676.676,0,0,0-.956,0h0a.676.676,0,0,0,0,.956l3.1,3.1-3.1,3.1a.676.676,0,0,0,0,.956h0a.676.676,0,0,0,.956,0l3.1-3.1,3.1,3.1a.676.676,0,0,0,.956,0h0a.676.676,0,0,0,0-.956l-3.1-3.1,3.1-3.1A.676.676,0,0,0,14.021,5.905Z" transform="translate(170.037 286.037)" fill="#fff"/>
      </g>
    </g>
  </g>
</svg>
