<svg xmlns="http://www.w3.org/2000/svg" shape-rendering="geometricPrecision" text-rendering="geometricPrecision" image-rendering="optimizeQuality" fill-rule="evenodd" clip-rule="evenodd" viewBox="0 0 456 512.266"><path d="M173.688 248.596c-11.096-9.872-19.864-16.997-21.737-37.492l-1.188.022c-2.748-.036-5.401-.666-7.879-2.084-3.976-2.26-6.767-6.137-8.655-10.514-4.001-9.179-7.164-33.336 2.894-40.246l-1.884-1.25-.212-2.674c-.386-4.854-.488-10.743-.583-16.913-.364-22.714-.827-50.228-19.088-55.749l-7.835-2.368 5.16-6.385c14.759-18.235 30.174-34.178 45.723-46.419C175.988 12.68 193.866 3.46 211.354.8c17.984-2.73 35.407 1.399 51.5 14.409 4.748 3.837 9.361 8.45 13.807 13.862 17.172 1.658 31.209 10.903 41.23 24.099 5.98 7.879 10.521 17.197 13.414 27.094 2.883 9.869 4.14 20.371 3.608 30.706-.976 18.512-7.747 36.595-21.388 49.779 2.395.092 4.658.646 6.659 1.71 7.612 4.077 7.856 12.922 5.856 20.341-1.975 6.199-4.49 13.396-6.859 19.438-2.878 8.156-7.091 9.679-15.232 8.797-.416 20.167-9.734 25.71-22.277 37.561-7.157 33.89-98.123 29.353-107.984 0zm45.811 200.833l.75 19.668h-18.822l.937-17.795-.095-4.682-10.116-.186-8.706.28-.094 2.715.746 19.668h-18.822l.937-17.795-.937-42.797h19.107l-.565 22.944 9.46.189 8.615-.189-.467-22.944h19.103l-1.031 40.924zm57.734-4.212c4.497 6.993 8.99 13.487 13.487 19.477l-.28 2.063c-6.37 1.935-12.646 3.09-18.826 3.462l-1.778-1.498-1.122-2.339c-.5-.999-1.498-3.109-3-6.323a177.374 177.374 0 01-3.932-9.037h-6.275l.656 18.075h-18.822l.936-17.795-.936-42.797 28.749-.091c6.807 0 12.051 1.607 15.731 4.821 3.685 3.215 5.529 7.85 5.529 13.906 0 3.561-.893 6.899-2.672 10.022-1.778 3.123-4.26 5.805-7.445 8.054zm-9.646-16.203c0-2.496-.638-4.354-1.916-5.571-1.283-1.217-3.357-1.888-6.229-2.012l-3.374.281-.372 15.637 6.837.375c1.745-.813 3.028-1.902 3.837-3.276.813-1.374 1.217-3.185 1.217-5.434zm188.298-55.526l-.824 124.449c-.014 3.91-1.651 7.517-4.22 10.087-2.623 2.591-6.224 4.242-10.105 4.242H14.354c-3.91 0-7.528-1.626-10.134-4.231C1.64 505.454 0 501.872 0 497.911V365.34h.025v-.882c0-27.601 7.988-36.813 38.997-53.944 30.468-16.957 101.592-15.685 126.547-38.151l34.481 90.543 17.335-49.357-8.498-9.285c-6.388-9.336-4.194-19.93 7.642-21.847 3.994-.645 8.487-.244 12.838-.244 4.596 0 9.723-.427 14.085.536 10.987 2.423 12.131 13.079 6.658 21.555l-8.498 9.285 17.331 49.357 31.187-90.543c22.503 20.258 101.763 24.336 126.551 38.151 30.629 17.145 39.565 25.884 39.313 52.654l-.098 10.32h-.011zm-16.286 8.149H16.297v114.332h422.544l.758-114.332z"/></svg>