<svg xmlns="http://www.w3.org/2000/svg" width="20" height="20" viewBox="0 0 20 20">
  <g id="Group_4465" data-name="Group 4465" transform="translate(-324 -293)">
    <rect id="Rectangle_13" data-name="Rectangle 13" width="20" height="20" rx="10" transform="translate(324 293)" fill="#f17a12"/>
    <path id="fi-rr-time-quarter-to" d="M15.076,7.538A7.538,7.538,0,1,1,0,7.538a.628.628,0,0,1,1.256,0A6.282,6.282,0,1,0,7.538,1.256.628.628,0,1,1,7.538,0,7.546,7.546,0,0,1,15.076,7.538ZM6.456,6.91H5.025a.628.628,0,0,0,0,1.256h1.43A1.253,1.253,0,1,0,8.166,6.456V4.4a.628.628,0,0,0-1.256,0V6.456a1.256,1.256,0,0,0-.454.454ZM1.148,5.518A.628.628,0,1,0,.519,4.89.628.628,0,0,0,1.148,5.518Zm1.5-2.247a.628.628,0,1,0-.628-.628A.628.628,0,0,0,2.652,3.271ZM4.887,1.785a.628.628,0,1,0-.628-.628A.628.628,0,0,0,4.887,1.785Z" transform="translate(326.462 295.462)" fill="#fff"/>
  </g>
</svg>
