<svg xmlns="http://www.w3.org/2000/svg" width="11.861" height="11.861" viewBox="0 0 11.861 11.861">
  <path id="fi-rr-cross-small" d="M17.292,5.983h0a.942.942,0,0,0-1.333,0l-4.322,4.322L7.316,5.983a.942.942,0,0,0-1.333,0h0a.942.942,0,0,0,0,1.333l4.322,4.322L5.983,15.96a.942.942,0,0,0,0,1.333h0a.942.942,0,0,0,1.333,0l4.322-4.322,4.322,4.322a.942.942,0,0,0,1.333,0h0a.942.942,0,0,0,0-1.333L12.97,11.638l4.322-4.322A.942.942,0,0,0,17.292,5.983Z" transform="translate(-5.707 -5.707)" fill="#f5f5f5"/>
</svg>
