<?xml version="1.0" encoding="utf-8"?>
<!-- Generator: Adobe Illustrator 24.2.0, SVG Export Plug-In . SVG Version: 6.00 Build 0)  -->
<svg version="1.1" id="Layer_1" xmlns="http://www.w3.org/2000/svg" xmlns:xlink="http://www.w3.org/1999/xlink" x="0px" y="0px"
	 viewBox="0 0 595.28 841.89" style="enable-background:new 0 0 595.28 841.89;" xml:space="preserve">
<style type="text/css">
	.st0{fill:#FEFEFE;}
	.st1{fill:#4F6466;}
	.st2{fill:#22C6B7;}
	.st3{fill:#929FA0;}
	.st4{fill:#95A2A3;}
	.st5{fill:#EAEBEC;}
	.st6{fill:#EBEDED;}
	.st7{fill:#F1F2F2;}
	.st8{fill:#DEE1E1;}
	.st9{fill:#EDEFEF;}
	.st10{fill:#F0F1F1;}
	.st11{fill:#506567;}
	.st12{fill:#516668;}
	.st13{fill:#32CEC0;}
	.st14{fill:#778789;}
	.st15{fill:#617576;}
	.st16{fill:#34CFC1;}
	.st17{fill:#98A3A4;}
	.st18{fill:#697B7D;}
	.st19{fill:#89D9D1;}
	.st20{fill:#5B6F71;}
	.st21{fill:#D4F1EE;}
	.st22{fill:#40D4C7;}
	.st23{fill:#3ED1C3;}
	.st24{fill:#C6E9E6;}
	.st25{fill:#40DDCE;}
	.st26{fill:#ABDEDA;}
	.st27{fill:#718284;}
</style>
<g>
	<g>
		<path class="st0" d="M158.08,520.9c0-20.31,0.05-40.63-0.07-60.94c-0.01-2.5,0.56-3.07,3.06-3.06
			c23.64,0.11,47.29,0.07,70.93,0.07c0.14,1.92-1.41,1.81-2.57,2.18c-2.62,0.13-5.28,0.13-7.55,1.78
			c-13.4,5.27-24.88,13.05-32.96,25.25c-1.41,1.5-2.39,3.27-3.21,5.13c-1.46,2.81-2.99,5.6-3.94,8.65
			c-0.88,1.61-1.71,3.24-2.01,5.09c-0.93,1.64-0.72,3.63-1.63,5.28c0.18,1.88-0.76,3.54-1.05,5.31c0.05,0.35-0.17,0.74,0.14,1.06
			c-0.22-0.39-0.1-0.8-0.09-1.24c0.61-1.72,1.05-3.45,1.14-5.26c0.31-0.87,0.85-1.66,0.82-2.64c0.52-2.04,1.07-4.07,1.98-5.98
			c1.7-3.37,3.53-6.65,6.21-9.37c1.98-1.41,3.37-3.33,4.69-5.33c15.66-14.81,33.89-22.01,55.57-18.3
			c26.44,4.54,46.86,24.78,51.59,51.02c0.92,5.1,1.47,10.2,1.04,15.38c-0.94,5.13-1.77,10.29-3.2,15.32
			c-1.03,3.28-2.5,6.38-4.08,9.43c-1,1.79-2.16,3.48-3.22,5.24c-0.9,1.09-1.47,2.4-2.32,3.45c0.05-0.05-0.1,0.1-0.1,0.1
			s0.14-0.14,0.19-0.19c0.73-0.75,1.19-1.61,1.77-2.38c1.24-1.66,2.19-3.51,3.41-5.19c4.92-7.13,9.38-14.31,11.37-23.06
			c7.79-34.15-11.54-67.45-45.16-77.23c-2.16-0.63-5.21-0.18-5.84-3.51c19.32,0,38.63,0.05,57.95-0.07c2.5-0.02,3.07,0.57,3.06,3.06
			c-0.11,25.64-0.07,51.28-0.07,76.93c-0.9,0.7-1.02,1.68-1.03,2.72c0.11,2.09-1.36,3.64-1.86,5.51c-0.13,0.44-0.29,0.87-0.45,1.3
			c-0.82,1.99-1.35,4.05-1.56,6.2c-4.03,12.71-12.21,22.57-22.58,30.31c-22.04,16.44-46.66,20.43-72.18,10.31
			c-26.99-10.7-42.53-31.26-46.64-60.37c-2.15-15.26,1.59-29.33,6.85-43.28c0.77-2.05,2.11-3.76,3.42-5.48
			c1.01-1.37,2.15-2.64,3.3-3.89c1.03-0.83,1.56-2.12,2.64-2.91c-0.89,0.51-1.43,1.36-2.09,2.1c-1.59,1.37-2.96,2.93-4.08,4.71
			c-8.02,9.71-13.52,20.63-16.07,33.01c-0.32,1.56-0.31,3.37-2.14,4.2C158.92,521.41,158.47,521.27,158.08,520.9z"/>
		<path class="st1" d="M159.21,520.95c2.45-11.59,6.57-22.47,13.33-32.32c1.41-2.06,3.2-3.72,4.66-5.68
			c1.29-0.66,2.16-0.6,1.99,1.19c-10.35,18.57-13.88,38.2-8.4,58.94c7.59,28.71,32.82,50.49,61.69,53.69
			c30.19,3.34,58.86-11.74,73.01-38.51c1.06-2,1.64-4.26,2.44-6.39c2.57-1.14,2.62,0.7,2.81,2.37c-0.31,2.27-1.47,4.33-1.6,6.65
			c-6.05,18.64-18.21,32.18-35.07,41.7c-4.19,2.36-8.49,4.61-13.13,6.05c-4.01,0.87-7.92,2.31-12.1,2.3
			c-0.46,0.13-0.92,0.25-1.38,0.34c-1.81,0.31-3.74-0.54-5.47,0.54c-1.67,0-3.33,0-5,0c-2.33-0.82-4.66-0.82-6.99,0
			c-0.67,0-1.33,0-2,0c-1.38-1.03-2.99-0.26-4.46-0.55c-0.45-0.09-0.88-0.2-1.32-0.33c-2.82-0.06-5.56-0.64-8.28-1.33
			c-23.43-7.22-39.98-22.22-50.2-44.37c-0.97-2.1-2.15-4.13-2.7-6.42c-0.56-3.9-1.94-7.64-2.21-11.6c-0.15-0.46-0.24-0.94-0.24-1.43
			c-0.25-1.63,0.52-3.37-0.52-4.91c0-0.67,0-1.33,0-2c0.82-3.66,0.82-7.33,0-10.99c0-0.67,0-1.33,0-2
			C159.38,524.46,157.74,522.35,159.21,520.95z"/>
		<path class="st2" d="M298.98,534.89c0.26-20.96-6.66-38.83-23.2-52.24c-24.13-19.57-56.56-18.09-81.08,3.45
			c-0.75,0.66-1.49,1.32-2.23,1.97c-1.75,1.35-3.12,3.05-4.42,4.81c-2,3.01-4,6.03-6,9.04c-1.84-0.03-1.5-1.14-1.11-2.26
			c0.25-3.38,2.07-6.09,3.76-8.86c1.85-1.18,2.14-3.37,3.28-5.01c7.83-12.69,19.48-20.45,33.09-25.69c2.53-1.25,5.35-1.37,8.02-2.1
			c1.05-0.12,2.34,0.39,2.92-1.05c6.99,0,13.99,0,20.98,0c0.95,1.77,2.85,1.48,4.35,1.86c39.82,9.94,61.05,53.71,44.02,90.94
			c-2.06,4.49-5.29,8.27-8.2,12.23c-1.91,0.06-1.86-0.97-1.29-2.3c1.21-2.99,2.43-5.97,3.64-8.96
			C297.96,545.73,299.19,540.46,298.98,534.89z"/>
		<path class="st0" d="M260.91,607.61c20.56-8.09,36.24-21.47,45.39-41.9c0.67-1.5,1.2-3.06,1.79-4.6c0.77-2.04,1.12-4.21,1.94-6.24
			c-0.13-1.4,0.75-3.5-2.1-3.01c0.13-2.2,0.46-4.32,2.1-5.99c0.36,0.29,0.59,0.66,0.67,1.12c0.54-0.14,0.4-0.69,0.64-1.05
			c0.31-0.6,0.77-1.03,1.34-1.35c0.47-0.15,0.88-0.05,1.24,0.27c0,21.31-0.05,42.63,0.07,63.94c0.01,2.5-0.56,3.08-3.06,3.06
			c-20.98-0.12-41.96-0.07-62.94-0.07c-0.32-0.22-0.44-0.46-0.34-0.7c0.1-0.25,0.2-0.37,0.3-0.37l-0.02,0.01
			C252.33,610.02,256.79,609.51,260.91,607.61z"/>
		<path class="st0" d="M159.13,545.86c0.21,0.21,0.24,0.44,0.09,0.69c0.62,4.19,1.43,8.34,2.96,12.31
			c6.02,15.06,14.77,28.06,28.07,37.74c7.31,5.31,15.4,8.98,23.81,12.09c2.83,1.53,6.02,1.44,9.06,2.03l-0.02-0.03
			c0.29,0.27,0.37,0.52,0.25,0.77c-0.11,0.23-0.22,0.35-0.33,0.35c-20.57,0-41.14-0.07-61.71,0.08c-2.77,0.02-3.33-0.56-3.31-3.32
			c0.15-20.9,0.08-41.8,0.08-62.7C158.43,545.41,158.78,545.43,159.13,545.86z"/>
		<path class="st3" d="M158.08,527.89c1.69,3.66,1.65,7.33,0,10.99C158.08,535.22,158.08,531.55,158.08,527.89z"/>
		<path class="st4" d="M230.01,611.81c2.33-1.76,4.66-1.48,6.99,0C234.68,611.81,232.34,611.81,230.01,611.81z"/>
		<path class="st5" d="M247.95,610.74c0.01,0.36,0.03,0.71,0.04,1.07c-2,0-4,0-5.99,0C243.76,610.17,245.92,610.82,247.95,610.74z"
			/>
		<path class="st6" d="M159.13,545.86c-0.35,0-0.7,0.01-1.05,0.01c0-1.67,0-3.33,0-5C159.78,542.25,159.04,544.15,159.13,545.86z"/>
		<path class="st7" d="M313.93,544.87c-0.32,0.01-0.64,0.01-0.97,0.01c-1.61-1.44-0.46-3.12-0.41-4.71
			c0.36-0.55,0.82-0.65,1.38-0.29C313.93,541.54,313.93,543.21,313.93,544.87z"/>
		<path class="st8" d="M313.93,539.88c-0.31,0.01-0.62,0.02-0.93,0.02c-0.43-0.18-0.75-0.47-0.98-0.87
			c-0.16-1.42,0.53-2.09,1.9-2.14C313.93,537.88,313.93,538.88,313.93,539.88z"/>
		<path class="st9" d="M159.21,520.95c-0.16,1.7,0.64,3.61-1.13,4.94c0-1.67,0-3.33,0-5C158.46,520.91,158.83,520.93,159.21,520.95z
			"/>
		<path class="st10" d="M223.02,611.81c0.03-0.37,0.05-0.74,0.08-1.12c1.69,0.15,3.6-0.65,4.92,1.12
			C226.35,611.81,224.68,611.81,223.02,611.81z"/>
		<path class="st11" d="M225.02,582.88c13.58-2.95,18.23-8.67,18.26-22.47c0-0.17-0.02-0.34,0-0.5c1.05-6.29-0.22-10.5-7.32-12.97
			c-9.2-3.2-19.63-27.02-16.43-37.2c1.21-3.85,3.29-6.39,6.94-7.85c3.07-1.22,6.46-1.42,9.35-3.3c1.35-0.88,2.96-0.2,3.99,1.09
			c0.62,0.77,1.06,1.71,0.6,2.78c-0.66,1.53-1.8,2.43-3.48,2.33c-13.62-0.82-15.16,5.91-11.92,18.03
			c2.15,8.02,6.75,14.25,13.86,18.66c4.15,2.58,8.33,3.27,12.72,0.83c10.25-5.7,15.7-14.56,16.51-26.14
			c0.59-8.47-2.98-11.88-11.45-11.58c-0.66,0.02-1.34,0.3-1.97,0.21c-2.05-0.3-3.55-1.39-3.17-3.63c0.41-2.39,2.17-3.33,4.46-2.69
			c1.57,0.44,2.97,1.46,4.53,1.92c11.23,3.33,13.68,7.35,11.98,19.06c-1.23,8.53-5.96,15.41-10.23,22.48
			c-1.14,1.89-3.25,3.99-5.25,4.41c-9.89,2.09-9.39,9.08-9.14,16.77c0.36,11.17-6.31,19.65-16.74,22.6
			c-0.62,0.18-1.31,0.11-1.97,0.16c-0.44,0.33-0.91,0.39-1.41,0.17C226.17,585.58,223.95,585.64,225.02,582.88z"/>
		<path class="st12" d="M225.02,582.88c-0.13,2.15,2.15,1.67,3,2.75c-3.02,1.23-6.09,0.78-9.16,0.27c-2.26,0.42-4.21-0.25-5.95-1.67
			c-1.53-2.03-4.1-2.68-5.87-4.4c-6.12-5.07-7.45-11.91-7-19.33c0.3-4.92,0.21-8.94-5.62-11.45c-5.03-2.17-6.36-8.31-4.56-13.44
			c1.78-5.05,7.38-8.73,12.9-8.46c5.83,0.28,11.03,4.23,12.27,9.33c1.32,5.39-0.5,10.96-5.58,13.14c-4.53,1.95-4.64,4.88-4.79,8.93
			c-0.34,9.03,1.24,16.61,9.73,21.92C217.98,582.72,221.48,582.15,225.02,582.88z"/>
		<path class="st13" d="M298.98,534.89c1.53,5.87-0.27,11.01-3.45,15.85C296.67,545.45,297.82,540.17,298.98,534.89z"/>
		<path class="st14" d="M180.92,478.85c1.56-1.77,3.12-3.55,4.68-5.32c0.37,0.35,0.75,0.71,1.12,1.06c-0.99,2.43-2.69,4.39-4.7,6.14
			C181.33,480.3,181.01,479.65,180.92,478.85z"/>
		<path class="st13" d="M291.88,559.69c0.09,0.96,0.32,1.83,1.29,2.3c-0.8,1.83-1.81,3.52-3.42,4.78c-1.68-0.13-1.37-1.09-0.88-2.12
			C289.08,562.52,290.78,561.29,291.88,559.69z"/>
		<path class="st15" d="M180.92,478.85c0.82,0.36,1.08,1.05,1.1,1.88c-1.09,1.01-1.02,2.99-2.83,3.41c-0.39-0.84-1.1-1.17-1.99-1.19
			C177.82,481.02,179.41,479.98,180.92,478.85z"/>
		<path class="st16" d="M180.94,499.65c0.15,0.86,0.21,1.77,1.11,2.26c-0.69,1.99-1.38,3.97-2.07,5.96
			c-2.35-0.36-1.27-1.81-0.95-3.02C178.78,502.8,179.67,501.16,180.94,499.65z"/>
		<path class="st17" d="M312.03,539.02c0.32,0.29,0.65,0.58,0.97,0.87c-0.01,1.66-0.03,3.32-0.04,4.98
			c-0.29,0.38-0.57,0.77-0.86,1.15c-0.76-0.06-1.34-0.44-1.8-1.02C309.42,542.59,312.66,541.36,312.03,539.02z"/>
		<path class="st18" d="M310.31,545c0.81-0.02,1.4,0.33,1.8,1.02c-0.05,1.55,0.08,3.16-1.12,4.49c-2.27-1.45-0.35-3.24-0.94-4.65
			C310.22,545.61,310.3,545.32,310.31,545z"/>
		<path class="st19" d="M176.18,515.8c0.33-1.98,0.66-3.95,0.99-5.93c0.7-0.5,1.38-0.57,2,0.14c-0.39,1.95-0.77,3.9-1.16,5.85
			C177.38,516.48,176.77,516.49,176.18,515.8z"/>
		<path class="st20" d="M218.86,585.9c3.05-0.09,6.11-0.17,9.16-0.26c0.38,0.09,0.76,0.17,1.13,0.26
			C225.72,587.28,222.29,587.25,218.86,585.9z"/>
		<path class="st21" d="M229.09,458c-2.53,1.26-5.23,1.84-8.02,2.1C223.37,457.95,226.17,457.76,229.09,458z"/>
		<path class="st20" d="M207.04,579.84c2.49,0.76,4.83,1.7,5.87,4.4C210.66,583.16,208.38,582.12,207.04,579.84z"/>
		<path class="st22" d="M179.17,510.01c-0.67-0.05-1.33-0.09-2-0.14c0.62-1.67,1.24-3.34,1.86-5.01c0.12,1.07-0.18,2.26,0.95,3.02
			C179.71,508.59,179.44,509.3,179.17,510.01z"/>
		<path class="st23" d="M288.87,564.65c0.29,0.71,0.59,1.41,0.88,2.12c-0.33,1.52-1.34,2.13-2.83,2.06l0.06,0.06
			C286.61,567.03,287.64,565.79,288.87,564.65z"/>
		<path class="st16" d="M188.05,492.88c0.45-2.55,2.04-4.04,4.42-4.81C191.38,490.02,190.23,491.93,188.05,492.88z"/>
		<path class="st16" d="M187.98,485.79c-0.3,2.19-0.73,4.29-3.28,5.01C185.56,488.97,186.27,487.05,187.98,485.79z"/>
		<path class="st24" d="M176.18,515.8c0.61,0.02,1.22,0.04,1.83,0.06c-0.06,1.2,0.37,3.15-1.16,3.06
			C175.41,518.83,176.26,516.92,176.18,515.8z"/>
		<path class="st25" d="M286.92,568.82c-0.08,1.14-0.13,2.31-1.65,2.44c-0.2,0.02-0.61-0.37-0.61-0.57
			c0.01-1.54,1.21-1.63,2.32-1.81C286.98,568.88,286.92,568.82,286.92,568.82z"/>
		<path class="st26" d="M281.52,575.26c-0.34,0.22-0.81,0.59-1.33,0.81c-0.58,0.24-0.99-0.15-0.74-0.66
			c0.24-0.49,0.75-0.96,1.26-1.19C281.18,574.01,281.56,574.39,281.52,575.26z"/>
		<path class="st5" d="M260.91,607.61c-3.89,2.85-8.35,3.36-12.98,3.15C252.26,609.71,256.59,608.66,260.91,607.61z"/>
		<path class="st6" d="M162.18,558.87c-2.5-3.74-3.21-7.91-2.96-12.31C160.21,550.66,161.19,554.76,162.18,558.87z"/>
		<path class="st10" d="M223.12,610.72c-3.22,0.2-6.43,0.4-9.06-2.03C217.18,608.93,220.21,609.55,223.12,610.72z"/>
		<path class="st27" d="M310.04,554.87c0.11,2.31-0.53,4.4-1.94,6.24C307.83,558.75,308.36,556.63,310.04,554.87z"/>
		<path class="st2" d="M202.22,531.13c4.24-0.15,8.54,3.7,8.79,7.89c0.26,4.32-3.89,8.66-8.39,8.78c-4.82,0.13-8.52-3.08-8.74-7.57
			C193.63,534.96,196.96,531.32,202.22,531.13z"/>
	</g>
</g>
</svg>
