<svg width="16" height="14" viewBox="0 0 16 14" fill="none" xmlns="http://www.w3.org/2000/svg">
<path d="M15 2H10.955V1.25C10.955 0.918479 10.8233 0.600537 10.5889 0.366117C10.3545 0.131696 10.0365 0 9.705 0H6.205C5.87348 0 5.55554 0.131696 5.32112 0.366117C5.0867 0.600537 4.955 0.918479 4.955 1.25V2H1C0.734784 2 0.48043 2.10536 0.292893 2.29289C0.105357 2.48043 0 2.73478 0 3V13C0 13.2652 0.105357 13.5196 0.292893 13.7071C0.48043 13.8946 0.734784 14 1 14H15C15.2652 14 15.5196 13.8946 15.7071 13.7071C15.8946 13.5196 16 13.2652 16 13V3C16 2.73478 15.8946 2.48043 15.7071 2.29289C15.5196 2.10536 15.2652 2 15 2ZM5.955 1.25C5.955 1.1837 5.98134 1.12011 6.02822 1.07322C6.07511 1.02634 6.1387 1 6.205 1H9.705C9.7713 1 9.83489 1.02634 9.88178 1.07322C9.92866 1.12011 9.955 1.1837 9.955 1.25V2H5.955V1.25ZM1 13V3H15V13H1Z" fill="#22C7B8"/>
<path d="M9.075 11.6H7.37C7.19761 11.6 7.03228 11.5315 6.91038 11.4096C6.78848 11.2877 6.72 11.1224 6.72 10.95V9.59998H5.37C5.28464 9.59998 5.20012 9.58316 5.12126 9.5505C5.0424 9.51783 4.97074 9.46995 4.91038 9.4096C4.85002 9.34924 4.80215 9.27758 4.76948 9.19872C4.73681 9.11986 4.72 9.03533 4.72 8.94998V7.24998C4.72 7.16462 4.73681 7.08009 4.76948 7.00123C4.80215 6.92237 4.85002 6.85071 4.91038 6.79036C4.97074 6.73 5.0424 6.68212 5.12126 6.64945C5.20012 6.61679 5.28464 6.59998 5.37 6.59998H6.72V5.24998C6.72 5.16462 6.73681 5.08009 6.76948 5.00123C6.80215 4.92237 6.85002 4.85071 6.91038 4.79036C6.97074 4.73 7.0424 4.68212 7.12126 4.64945C7.20012 4.61679 7.28464 4.59998 7.37 4.59998H9.075C9.24652 4.6013 9.41057 4.67036 9.53139 4.79212C9.65221 4.91387 9.72001 5.07845 9.72 5.24998V6.59998H11.075C11.2465 6.6013 11.4106 6.67036 11.5314 6.79212C11.6522 6.91387 11.72 7.07845 11.72 7.24998V8.94998C11.72 9.1215 11.6522 9.28608 11.5314 9.40784C11.4106 9.52959 11.2465 9.59866 11.075 9.59998H9.72V10.95C9.72001 11.1215 9.65221 11.2861 9.53139 11.4078C9.41057 11.5296 9.24652 11.5987 9.075 11.6ZM7.5 10.8H8.905V8.79998H10.905V7.39998H8.905V5.39998H7.5V7.39998H5.5V8.79998H7.5V10.8Z" fill="#22C7B8"/>
</svg>
