<svg xmlns="http://www.w3.org/2000/svg" width="11.603" height="9.952" viewBox="0 0 11.603 9.952">
  <path id="fi-rr-undo" d="M11.119,13.366a.483.483,0,0,1-.483-.483,2.9,2.9,0,0,0-2.9-2.9H4.916v.767a.967.967,0,0,1-1.65.684L.423,8.59a1.45,1.45,0,0,1,0-2.051L3.265,3.7a.967.967,0,0,1,1.65.684v.767H7.251A4.356,4.356,0,0,1,11.6,9.5v3.384A.483.483,0,0,1,11.119,13.366ZM3.949,4.381,1.107,7.223a.483.483,0,0,0,0,.684l2.842,2.842V9.5a.483.483,0,0,1,.483-.483h3.3a3.86,3.86,0,0,1,2.9,1.312V9.5A3.388,3.388,0,0,0,7.251,6.115H4.433a.483.483,0,0,1-.483-.483Z" transform="translate(0.001 -3.414)" fill="#8a8a8a"/>
</svg>
