<svg xmlns="http://www.w3.org/2000/svg" width="17" height="17" viewBox="0 0 17 17">
  <g id="Group_4679" transform="translate(-262 -364)">
    <circle id="Ellipse_611" cx="8.5" cy="8.5" r="8.5" transform="translate(262 364)" fill="#22c7b8"/>
    <path id="fi-rr-plus-small" d="M14.176,9.716H11.2V6.743A.743.743,0,0,0,10.459,6h0a.743.743,0,0,0-.743.743V9.716H6.743A.743.743,0,0,0,6,10.459H6a.743.743,0,0,0,.743.743H9.716v2.973a.743.743,0,0,0,.743.743h0a.743.743,0,0,0,.743-.743V11.2h2.973a.743.743,0,0,0,.743-.743h0A.743.743,0,0,0,14.176,9.716Z" transform="translate(260 362)" fill="#fff"/>
  </g>
</svg>
